<?xml version="1.0" encoding="UTF-8"?>
<svg xmlns="http://www.w3.org/2000/svg" xmlns:xlink="http://www.w3.org/1999/xlink" width="18px" height="18px" viewBox="0 0 18 18" version="1.1">
<g id="surface1">
<path style=" stroke:none;fill-rule:nonzero;fill:rgb(0%,0%,0%);fill-opacity:1;" d="M 17.4375 1.6875 L 17.4375 6.75 C 17.4375 7.371094 16.933594 7.875 16.3125 7.875 L 11.25 7.875 C 10.628906 7.875 10.125 7.371094 10.125 6.75 C 10.125 6.128906 10.628906 5.625 11.25 5.625 L 13.480469 5.625 C 12.425781 4.230469 10.761719 3.382812 8.992188 3.382812 C 5.894531 3.382812 3.375 5.902344 3.375 9 C 3.375 12.097656 5.894531 14.617188 8.992188 14.617188 C 10.21875 14.617188 11.382812 14.230469 12.363281 13.496094 C 12.863281 13.125 13.566406 13.222656 13.9375 13.71875 C 14.3125 14.21875 14.210938 14.921875 13.714844 15.292969 C 12.34375 16.324219 10.714844 16.871094 8.996094 16.871094 C 4.65625 16.871094 1.125 13.339844 1.125 9 C 1.125 4.660156 4.65625 1.128906 8.996094 1.128906 C 11.425781 1.128906 13.707031 2.269531 15.1875 4.15625 L 15.1875 1.6875 C 15.1875 1.066406 15.691406 0.5625 16.3125 0.5625 C 16.933594 0.5625 17.4375 1.066406 17.4375 1.6875 Z M 17.4375 1.6875 "/>
</g>
</svg>
